<svg version="1.0" xmlns="http://www.w3.org/2000/svg"
 width="224.000000pt" height="224.000000pt" viewBox="0 0 224.000000 224.000000"
 preserveAspectRatio="xMidYMid meet">

<g transform="translate(0.000000,224.000000) scale(0.100000,-0.100000)"
fill="#000000" stroke="none">
<path d="M0 1120 l0 -1120 1120 0 1120 0 0 1120 0 1120 -1120 0 -1120 0 0
-1120z m1290 814 c15 -9 32 -25 39 -36 13 -21 211 -719 211 -744 0 -52 -54 22
-272 374 -131 211 -238 391 -238 401 0 10 3 21 8 26 13 13 222 -4 252 -21z
m-435 -625 c7 -11 -425 -798 -449 -818 -25 -21 -43 0 -90 100 -49 105 -52 121
-36 166 9 25 545 562 562 563 4 0 10 -5 13 -11z m402 -315 c51 -87 93 -162 93
-166 0 -5 -88 -8 -195 -8 -139 0 -195 3 -195 11 0 22 183 330 194 326 6 -2 53
-75 103 -163z m707 -479 c7 -20 -112 -193 -146 -211 -15 -8 -40 -14 -55 -14
-15 0 -177 43 -358 95 -407 118 -395 114 -395 131 0 22 945 21 954 -1z"/>
</g>
</svg>
